<svg version="1.1" xmlns="http://www.w3.org/2000/svg" xmlns:xlink="http://www.w3.org/1999/xlink" x="0px" y="0px" width="250" height="250" viewBox="0 0 200 320" xml:space="preserve">

	<g id="svg-content">
		<g transform="matrix(0.70,0,0,0.70,30,40)">
			
<style type="text/css">
	.st0{fill:#69A231;}
	.st1{fill:#706032;}
</style>
<g>
	<g>
		<path class="st0" d="M133.7,70.7c0,0-17.2,0.5-16.7,18.6C117.1,89.2,134.1,88.1,133.7,70.7z"/>
		<path class="st0" d="M146,95.2c0,0-13.2-5.3-18.8,8.5C127.2,103.7,140.5,108.6,146,95.2z"/>
		<path class="st0" d="M35.4,102.3c0,0-11.2-8.9-20.4,2.8C15,105.1,26.3,113.5,35.4,102.3z"/>
		<path class="st0" d="M56,109.8c0,0-10-10.2-20.6,0.2C35.3,110,45.5,119.7,56,109.8z"/>
		<path class="st0" d="M47.6,41.7c0,0-11.3,8.7-2.1,20.5C45.5,62.2,56.3,53.2,47.6,41.7z"/>
		<path class="st0" d="M89.4,21.8c0,0-10.7-9.5-20.6,1.7C68.8,23.5,79.7,32.5,89.4,21.8z"/>
		<path class="st0" d="M48.9,128.2c0,0-15.6-2.7-18.4,13.6C30.5,141.8,46,143.9,48.9,128.2z"/>
		<path class="st0" d="M159.4,43.5c0,0-14,10.1-3.4,24.7C156,68.2,169.5,57.8,159.4,43.5z"/>
		<path class="st0" d="M133.6,58.3c0,0-15.4-7.8-23.5,8.3C110.1,66.6,125.6,73.8,133.6,58.3z"/>
		<path class="st0" d="M133.7,26.7c0,0-16,6.3-9.4,23.1C124.3,49.8,140,43,133.7,26.7z"/>
		<path class="st0" d="M108.3,75.5c0,0-15.4,7.9-7.1,23.9C101.1,99.4,116,91.1,108.3,75.5z"/>
		<path class="st0" d="M63.9,128c0,0,15.6,7.3,23.3-9C87.1,119.1,71.5,112.3,63.9,128z"/>
		<path class="st0" d="M108.4,118c0,0,1.4,17.2,19.3,15.8C127.8,133.8,125.9,116.9,108.4,118z"/>
		<path class="st0" d="M134,121.7c0,0-4.2,16.7,13.3,21.1C147.2,142.8,150.8,126.2,134,121.7z"/>
		<path class="st0" d="M71.3,154.1c0,0,16.6-4.6,11.8-22C83.1,132.1,66.9,137.3,71.3,154.1z"/>
		<path class="st0" d="M155,111.7c0,0,15.8,6.8,23-9.7C178,102,162.1,95.7,155,111.7z"/>
		<path class="st0" d="M160.6,91.7c0,0,17.3,0.1,17.4-17.9C178,73.8,161,74.2,160.6,91.7z"/>
		<path class="st0" d="M61.8,92.5c0,0,8.5,15,24.2,6.1C86,98.7,77.1,84.1,61.8,92.5z"/>
		<path class="st0" d="M49.2,68.5c0,0,1,17.2,19,16.2C68.2,84.7,66.7,67.7,49.2,68.5z"/>
		<path class="st0" d="M24.3,64c0,0-6.7,15.9,9.9,22.9C34.2,86.9,40.3,71,24.3,64z"/>
		<path class="st0" d="M74.7,50.5c0,0-5.3,16.4,11.9,21.9C86.5,72.5,91.2,56.1,74.7,50.5z"/>
		<path class="st0" d="M60.5,32.9c0,0,4.4,16.7,21.8,12.1C82.4,45,77.5,28.6,60.5,32.9z"/>
		<path class="st0" d="M99.6,16.8c0,0-9.1,14.7,6.2,24.2C105.8,40.9,114.3,26.1,99.6,16.8z"/>
	</g>
	<g>
		<path class="st1" d="M92.3,186.1l-2.4-2.6c17.8-16.6,17.6-47.9,6.2-66.8c-7.6-12.7-11.7-44,7.3-61.2c19.7-17.9,11.1-43.7,11-44
			l3.3-1.2c0.1,0.3,9.5,28.3-11.9,47.7c-17.4,15.7-13.5,45.3-6.6,56.8C111.1,134.9,111.9,167.8,92.3,186.1z"/>
		<path class="st1" d="M104.5,186.1c-18.7-17.5-19.7-51.1-8-69.4c0.7-1.1,1.3-2.1,1.7-3c2.3-4.7,10.3-16.6,33.4-24.4
			c23.5-8,37.3-20.7,41.1-37.7l3.5,0.8c-4.1,18.4-18.7,31.9-43.5,40.3c-22.5,7.6-29.7,19.3-31.4,22.6c-0.5,1-1.1,2.1-1.9,3.3
			c-10.9,17.2-10,48.6,7.5,64.9L104.5,186.1z"/>
		<path class="st1" d="M136.6,91l-2.8-2.1c20.8-28,3.6-69.2,3.4-69.6l3.3-1.4C141.2,19.6,158.7,61.4,136.6,91z"/>
		<path class="st1" d="M161.2,123.5c-9.8,0-19-3.9-27.8-8.2c-16.6-8.2-32.2-0.1-32.3,0l-1.7-3.1c0.7-0.4,17.3-9,35.5,0
			c19.1,9.4,33.4,12.1,50-1.7l2.3,2.7C178,120.7,169.4,123.5,161.2,123.5z"/>
		<path class="st1" d="M170.2,151.6l-3.5-0.1c0.6-18.5-19.5-30.5-19.7-30.6l1.8-3.1C149.6,118.4,170.8,131,170.2,151.6z"/>
		<path class="st1" d="M106.7,156.1l-3.2-1.4c0.1-0.2,6.9-15.1,25.7-13.5l-0.3,3.5C112.6,143.3,106.9,155.6,106.7,156.1z"/>
		<path class="st1" d="M52.7,141c-2.5-22.2,15.6-31.3,15.8-31.4l1.6,3.2c-0.7,0.3-16.1,8.2-13.9,27.8L52.7,141z"/>
		<path class="st1" d="M129.9,113.3c-0.8,0-1.3,0-1.4,0l0.3-3.5c0.7,0.1,18.3,1.3,25.4-14.7l3.2,1.4
			C150.5,112.1,134.6,113.3,129.9,113.3z"/>
		<path class="st1" d="M35.8,123.5c-8.2,0-16.9-2.8-26-10.4l2.3-2.7c16.6,13.8,30.9,11.1,50,1.7c18.3-9,34.9-0.3,35.5,0l-1.7,3.1
			l0.8-1.6l-0.8,1.6c-0.2-0.1-15.7-8.1-32.3,0C54.7,119.6,45.5,123.5,35.8,123.5z"/>
		<path class="st1" d="M70.8,112.3C54.2,105.6,42.5,90.1,37,67.4c-4.1-17-3.3-31.7-3.3-32.4l3.5,0.2c0,0.6-2.8,58.7,34.8,73.7
			L70.8,112.3z"/>
		<path class="st1" d="M47.3,98.1c-24.7,0-36.3-20.5-36.4-20.7l3.1-1.7l-1.5,0.9l1.5-0.9c0.5,0.9,11.9,20.8,36.9,18.7l0.3,3.5
			C49.8,98.1,48.5,98.1,47.3,98.1z"/>
		<path class="st1" d="M100.8,58.7c-0.1-20-19.9-24.8-20.7-25l0.8-3.4c0.2,0.1,23.3,5.6,23.4,28.4H100.8z"/>
		<path class="st1" d="M91.1,84.2C62.4,76.8,55.1,46.3,55,46l3.4-0.8c0.1,0.3,7,28.8,33.5,35.6L91.1,84.2z"/>
	</g>
	<path class="st0" d="M98.5,187.6c-49.8,0-90.3-40.5-90.3-90.3S48.7,7.1,98.5,7.1s90.3,40.5,90.3,90.3S148.2,187.6,98.5,187.6z
		 M98.5,10.6c-47.8,0-86.7,38.9-86.7,86.7S50.6,184,98.5,184s86.7-38.9,86.7-86.7S146.3,10.6,98.5,10.6z"/>
</g>

		</g>
	</g>
</svg>